<?xml version="1.0" standalone="no"?>
<!DOCTYPE svg PUBLIC "-//W3C//DTD SVG 20010904//EN"
 "http://www.w3.org/TR/2001/REC-SVG-20010904/DTD/svg10.dtd">
<svg version="1.0" xmlns="http://www.w3.org/2000/svg"
 width="511.000000pt" height="511.000000pt" viewBox="0 0 511.000000 511.000000"
 preserveAspectRatio="xMidYMid meet">
<metadata>
Created by potrace 1.11, written by Peter Selinger 2001-2013
</metadata>
<g transform="translate(0.000000,511.000000) scale(0.100000,-0.100000)"
fill="#000000" stroke="none">
<path d="M2518 5076 c-1 -2 -57 -6 -123 -10 -66 -3 -131 -8 -145 -10 -14 -2
-47 -7 -75 -11 -99 -13 -120 -17 -269 -55 -442 -112 -839 -339 -1161 -664
-135 -136 -253 -280 -331 -404 -21 -35 -47 -75 -56 -90 -116 -185 -243 -504
-293 -737 -47 -218 -59 -332 -59 -560 0 -223 20 -404 65 -580 11 -44 22 -91
25 -103 8 -38 68 -210 107 -302 43 -103 121 -255 179 -347 38 -62 173 -251
187 -263 3 -3 29 -32 56 -65 131 -157 364 -357 560 -482 228 -144 546 -277
790 -328 218 -47 345 -60 570 -59 179 1 234 5 395 29 402 59 860 262 1175 519
93 77 120 101 220 201 401 400 654 927 722 1500 10 90 10 468 0 565 -7 61 -37
234 -52 300 -39 162 -109 357 -188 520 -56 117 -164 302 -179 308 -4 2 -8 8
-8 14 0 23 -174 233 -295 355 -248 250 -501 423 -819 558 -175 74 -442 148
-616 170 -30 4 -64 9 -75 11 -11 2 -78 6 -150 10 -71 3 -135 7 -142 9 -6 2
-13 2 -15 1z"/>
</g>
</svg>
